Serial Mom (1994)

Director: John Waters

Serial Mom is a 1994 American satirical comedy film written and directed by John Waters, starring Kathleen Turner as the titular character, Sam Waterston as her husband, and Ricki Lake and Matthew Lillard as her daughter and son. Despite statements to the contrary in the movie, the story is completely fictional. Patty Hearst, Suzanne Somers, Joan Rivers, Traci Lords and Brigid Berlin make cameo appearances in the film.

Movies by Waters' creative influences, including Russ Meyer, Otto Preminger, William Castle, and Herschell Gordon Lewis, are seen playing on television sets throughout the film.

The film was screened out of competition at the 1994 Cannes Film Festival.

Though the beginning of the movie says that everything in it is true, when questioned John Waters said he made it up, as a gag.

The films which Waters made in the eighties and early ninetes, such as Hairspray and Cry-Baby, were slightly less harsh-edged than his eadiest work. In Serial Mom, he harks back in terms of violence to those earliest projects, although in other ways he moves more directly towards the commercial mainstream. Serial Mom particularly recalls Multiple Maniacs, which was inspired by the Sharon Tate murder and featured Divine as a mass murderer who dailies en route to damnation with a perverted nun. No Divine this time, but rather Kathleen Turner as an apparently immaculate mother and housekeeper who, as the title suggests, has latent psychotic tendencies.

As it has in common with his earliest films a tendency towards grotesquely and blackly humorous murders, Serial Mom matches Water's more recent work in terms of being slick and stylish. Turner is good as a sort of twisted Hyacinth Bucket with teeth, and the usual catchy sound track of Water's films adds to the fun. Waters, in some ways a Russ Meyer sans mammary obsession, here largely succeeds in marrying the style of his 1980s and 90s films with the carnal excess of his 70s work if somewhat toned down.

Great (if dark) fun.

Media Info:
General
Complete name                    : J:\Seeding\Serial Mom (1994)[DVDRip][big_dad_e™]\Serial Mom (1994)[DVDRip][big_dad_e™].AVI
Format                           : AVI
Format/Info                      : Audio Video Interleave
File size                        : 1.19 GiB
Duration                         : 1h 33mn
Overall bit rate                 : 1 832 Kbps

Video
ID                               : 0
Format                           : MPEG-4 Visual
Format profile                   : Simple@L3
Format settings, BVOP            : No
Format settings, QPel            : No
Format settings, GMC             : No warppoints
Format settings, Matrix          : Default (H.263)
Codec ID                         : XVID
Codec ID/Hint                    : XviD
Duration                         : 1h 33mn
Bit rate                         : 1 499 Kbps
Width                            : 708 pixels
Height                           : 390 pixels
Display aspect ratio             : 1.614
Frame rate                       : 23.976 fps
Color space                      : YUV
Chroma subsampling               : 4:2:0
Bit depth                        : 8 bits
Scan type                        : Progressive
Bits/(Pixel*Frame)               : 0.226
Stream size                      : 1 000 MiB (82%)
Writing library                  : XviD 1.1.2 (UTC 2006-11-01)

Audio
ID                               : 1
Format                           : MPEG Audio
Format version                   : Version 1
Format profile                   : Layer 3
Mode                             : Joint stereo
Codec ID                         : 55
Codec ID/Hint                    : MP3
Duration                         : 1h 33mn
Bit rate mode                    : Constant
Bit rate                         : 320 Kbps
Channel(s)                       : 2 channels
Sampling rate                    : 48.0 KHz
Stream size                      : 214 MiB (17%)
Alignment                        : Split accross interleaves
Interleave, duration             : 24 ms (0.58 video frame)
Interleave, preload duration     : 287 ms
Writing library                  : LAME3.98

File Scan:
Malwarebytes' Anti-Malware 1.50.1.1100
www.malwarebytes.org

Database version: 5420

Windows 5.1.2600 Service Pack 3
Internet Explorer 8.0.6001.18702

12/29/2010 9:05:47 PM
mbam-log-2010-12-29 (21-05-47).txt

Scan type: Quick scan
Objects scanned: 6
Time elapsed: 53 second(s)

Memory Processes Infected: 0
Memory Modules Infected: 0
Registry Keys Infected: 0
Registry Values Infected: 0
Registry Data Items Infected: 0
Folders Infected: 0
Files Infected: 0

Memory Processes Infected:
(No malicious items detected)

Memory Modules Infected:
(No malicious items detected)

Registry Keys Infected:
(No malicious items detected)

Registry Values Infected:
(No malicious items detected)

Registry Data Items Infected:
(No malicious items detected)

Folders Infected:
(No malicious items detected)

Files Infected:
(No malicious items detected)

When using TPB please read these important notes:
  
01- Anti-malware apps may warn about keygens, patches, cracks, etc., because of 
    their capabilities, (generating codes, etc.). Sometimes they're added to 
    the virus/spyware database and will be detected as malware. If you don't trust
    the keygens, patches, cracks, etc., don't use them. 
    
02- Before running .exe-files, keygens, patches, cracks, etc., always check first 
    if they can be unpacked. Often some third party added a virus to the 
    original file, repacked it and uploaded it again.

03- Letting anti-malware apps send scan results to their companies can cause
    keygens, patches, cracks, etc., to be added to their virus-database.

04- Firewalls which are set to automatically determine connections will allow 
    apps & malware!. Avoid this by manually configuring your firewall.

05- Usually (new) torrents with many downloads and seeders in a brief period is
    suspicious! Torrents with the Skull & Crossbones icon are trusted.

06- Some people use multiple accounts and post fake comments 
    and/or files trying to spread confusion. They seldom seriously
    comment or have any torrents, or a just a few to look passable.

07- Clicking on unknown links can cause malware to be installed on your machine.
  
08- In general often there are more fake and negative comments than reliable and
    positive comments.

09- In some countries uploading/downloading copyright protected material is 
    forbidden, but showing some appreciation to reliable up-loaders is not.

10- Posting fake and negative comments or fake/infected uploads on TPB can result
    in getting banned from TPB!

Requests?  Find me on SuprBay. http://forum.suprbay.org/member.php?action=profile&uid=91870
 

For reporting bad or suspicious torrents:  
http://forum.suprbay.org/forumdisplay.php?fid=29

For more of my torrents: 
https://thepiratebay.org/user/big_dad_e/  (Secured)

All torrents scanned with:
Norton Anti-virus
Malwarebytes' Anti-malware
 
http://www.pirate-party.us/

ALWAYS SEED & THANKS SEEDERS!